<?xml version="1.0" standalone="no"?>
<!DOCTYPE svg PUBLIC "-//W3C//DTD SVG 20010904//EN"
 "http://www.w3.org/TR/2001/REC-SVG-20010904/DTD/svg10.dtd">
<svg version="1.0" xmlns="http://www.w3.org/2000/svg"
 width="512.000000pt" height="512.000000pt" viewBox="0 0 512.000000 512.000000"
 preserveAspectRatio="xMidYMid meet">
<metadata>
Created by potrace 1.14, written by Peter Selinger 2001-2017
</metadata>
<g transform="translate(0.000000,512.000000) scale(0.100000,-0.100000)"
fill="#000000" stroke="none">
<path d="M2277 4744 c-3 -3 -30 -8 -59 -10 -60 -4 -117 -10 -168 -20 -19 -3
-43 -7 -52 -7 -10 -1 -18 -4 -18 -7 0 -3 -10 -6 -23 -7 -24 -3 -44 -7 -67 -16
-8 -3 -28 -9 -45 -13 -16 -4 -34 -8 -40 -10 -5 -2 -19 -5 -30 -8 -31 -7 -168
-56 -187 -66 -10 -6 -22 -10 -28 -10 -11 0 -99 -39 -188 -83 -103 -52 -117
-60 -120 -69 -2 -4 -8 -8 -12 -8 -18 0 -180 -119 -180 -132 0 -5 -4 -7 -9 -3
-5 3 -17 -5 -25 -17 -9 -12 -16 -19 -16 -16 0 11 -65 -48 -185 -167 -97 -97
-225 -264 -225 -294 0 -5 -4 -11 -8 -13 -9 -3 -101 -172 -102 -186 -1 -19 -12
-42 -21 -42 -5 0 -8 -3 -7 -7 1 -8 -3 -22 -28 -83 -26 -67 -37 -95 -39 -100 0
-3 -19 -63 -42 -135 -38 -120 -55 -179 -57 -197 -2 -16 -26 -29 -81 -44 -88
-22 -116 -42 -130 -91 -7 -23 -11 -44 -8 -46 7 -8 -17 -179 -29 -200 -6 -12
-12 -37 -13 -56 -2 -20 -6 -56 -10 -81 -11 -67 -13 -438 -3 -490 5 -25 10 -67
12 -93 2 -26 6 -51 10 -54 3 -4 6 -17 6 -30 0 -45 30 -88 61 -85 3 0 25 -59
49 -131 41 -127 66 -170 100 -174 19 -2 71 -13 90 -18 8 -2 31 -7 50 -10 40
-7 107 -73 210 -205 168 -218 304 -345 495 -462 139 -85 238 -134 385 -190 36
-14 74 -29 85 -33 11 -5 23 -9 28 -10 4 -2 9 -4 12 -5 3 -1 10 -4 15 -5 6 -1
12 -4 15 -5 3 -1 10 -4 15 -5 6 -1 11 -3 13 -5 1 -1 11 -3 22 -5 11 -2 40 -9
65 -15 88 -23 117 -29 160 -35 19 -3 46 -7 60 -10 14 -3 48 -8 77 -10 29 -3
67 -7 85 -11 18 -3 51 -7 73 -9 22 -1 83 -6 135 -11 164 -14 461 -5 645 20 17
2 53 7 80 11 28 3 58 8 67 11 29 9 97 22 138 28 9 1 21 5 28 10 6 4 12 4 12 0
0 -3 7 -1 15 6 9 7 18 10 21 8 3 -3 28 3 56 13 28 10 55 16 59 13 5 -3 9 0 9
7 0 7 3 10 6 6 4 -3 19 0 35 9 16 8 29 12 29 9 0 -3 14 2 30 10 17 9 35 13 40
10 6 -3 10 -1 10 4 0 6 5 11 11 11 5 0 29 8 52 19 23 10 65 29 92 41 178 80
465 274 525 355 8 11 46 56 85 100 39 44 89 103 111 130 93 119 126 152 172
173 26 12 58 23 72 26 14 2 26 5 28 7 1 1 11 3 22 4 11 1 22 4 25 5 3 1 10 4
15 5 6 1 12 4 15 5 3 1 10 4 15 5 6 1 13 4 18 5 4 1 10 2 14 1 13 -1 55 103
68 169 11 56 19 71 58 107 25 24 42 43 39 43 -3 0 1 16 9 35 8 20 18 61 21 93
10 76 9 580 -1 662 -4 36 -8 71 -8 78 -1 6 -7 12 -14 12 -15 0 -25 43 -29 126
-4 82 -14 125 -33 147 -16 18 -138 60 -152 52 -16 -10 -41 35 -65 116 -14 46
-28 91 -32 99 -3 8 -6 18 -5 22 2 10 -64 187 -111 298 -5 14 -10 28 -9 33 1 4
-3 7 -9 7 -5 0 -7 5 -4 10 3 6 1 10 -4 10 -6 0 -10 3 -9 8 1 9 -25 64 -56 117
-13 22 -23 42 -21 45 6 10 -140 219 -209 300 -59 68 -138 144 -256 244 -43 36
-100 77 -100 72 0 -3 -15 8 -32 25 -18 16 -37 29 -42 29 -5 0 -17 6 -25 14
-30 26 -152 84 -296 140 -38 16 -78 32 -87 37 -10 5 -26 9 -36 9 -10 0 -22 3
-26 7 -3 4 -12 8 -19 9 -7 1 -43 11 -82 23 -38 11 -81 23 -95 25 -14 3 -25 5
-25 6 0 1 -13 4 -30 6 -45 8 -70 12 -70 14 0 2 -23 6 -77 15 -24 3 -56 9 -73
11 -80 13 -161 17 -406 21 -146 2 -268 1 -272 -3z m531 -1504 c6 0 18 0 25 -1
6 0 48 -2 92 -4 44 -2 109 -6 145 -10 36 -3 83 -8 105 -10 36 -3 103 -11 162
-20 12 -2 34 -6 50 -9 15 -3 51 -8 78 -11 28 -4 64 -10 80 -15 17 -5 50 -12
75 -15 25 -3 63 -11 85 -17 22 -7 42 -12 45 -13 219 -58 379 -154 488 -291 41
-52 91 -167 102 -239 14 -84 19 -413 9 -545 -11 -139 -27 -240 -57 -340 -9
-30 -17 -58 -18 -62 -1 -5 -3 -10 -4 -13 -1 -3 -4 -9 -5 -15 -1 -5 -4 -12 -5
-15 -1 -3 -3 -8 -5 -12 -9 -35 -44 -111 -59 -132 -6 -7 -11 -18 -12 -25 -3
-22 -93 -141 -141 -187 -26 -26 -73 -64 -103 -85 -63 -43 -220 -127 -220 -117
0 4 -5 2 -12 -5 -7 -7 -20 -12 -30 -12 -10 0 -18 -5 -18 -10 0 -6 -3 -9 -7 -8
-12 3 -126 -33 -139 -43 -6 -5 -13 -7 -16 -4 -3 3 -24 -2 -48 -10 -24 -8 -55
-18 -69 -21 -14 -2 -37 -7 -50 -10 -14 -3 -28 -7 -33 -10 -5 -3 -21 -7 -36 -9
-15 -3 -38 -7 -52 -10 -14 -3 -36 -8 -50 -10 -14 -2 -36 -7 -50 -10 -14 -4
-36 -8 -50 -10 -61 -8 -106 -16 -120 -22 -34 -13 -457 -24 -487 -12 -13 5 -25
4 -28 -1 -4 -6 -14 -7 -23 -3 -9 5 -52 8 -94 8 -43 0 -78 2 -78 5 0 3 -19 5
-43 5 -23 0 -62 5 -87 12 -42 10 -107 23 -155 29 -23 3 -42 8 -70 17 -11 3
-32 9 -47 12 -54 10 -74 15 -143 34 -38 11 -73 17 -77 15 -4 -3 -8 -1 -8 4 0
6 -16 13 -35 16 -44 9 -170 62 -294 124 -162 81 -283 214 -377 412 -14 30 -30
64 -35 75 -6 12 -12 30 -14 40 -2 11 -4 21 -5 23 -2 1 -3 5 -4 10 -2 4 -8 27
-15 51 -7 25 -14 56 -16 70 -2 14 -4 27 -6 29 -4 6 -25 152 -35 247 -11 115
-7 490 6 490 1 0 3 18 5 40 2 22 9 54 16 70 6 17 13 40 15 51 3 25 52 119 79
153 20 25 46 50 100 96 31 26 219 125 265 139 14 5 32 10 40 13 8 2 22 6 30 7
8 2 22 6 30 9 23 9 98 28 128 32 15 2 59 11 97 19 39 9 90 19 115 22 69 8 95
12 95 13 0 1 23 4 50 5 28 2 73 7 100 10 28 3 76 8 109 10 32 3 59 6 61 8 2 2
158 2 347 1 188 -2 349 -3 356 -3z"/>
<path d="M1510 2804 c-179 -56 -314 -187 -376 -361 -19 -56 -24 -88 -24 -178
0 -65 6 -128 14 -155 18 -59 48 -134 56 -140 3 -3 20 -26 37 -51 68 -99 195
-183 323 -213 74 -17 241 -16 263 2 8 7 16 9 19 6 3 -2 31 6 62 20 31 14 58
24 59 23 2 -1 10 5 19 13 26 24 58 50 63 50 16 0 145 166 145 187 0 4 7 21 15
36 45 86 53 278 16 387 -66 196 -224 342 -418 386 -69 15 -206 10 -273 -12z
m398 -94 c1 -2 5 -3 10 -4 13 -3 67 -40 80 -56 72 -85 69 -212 -7 -287 -46
-46 -88 -62 -156 -59 -89 4 -143 40 -181 120 -66 142 41 299 200 291 28 -2 52
-4 54 -5z"/>
<path d="M3406 2793 c-1 -1 -17 -4 -36 -6 -42 -5 -53 -9 -148 -54 -134 -63
-259 -220 -292 -365 -15 -70 -14 -235 3 -293 52 -184 197 -335 377 -391 68
-22 256 -25 315 -5 151 49 283 158 346 286 19 38 34 72 35 75 0 3 6 23 12 45
16 54 15 229 -2 290 -40 144 -115 247 -243 332 -54 37 -180 86 -195 77 -4 -3
-8 -2 -8 3 0 7 -157 12 -164 6z m344 -127 c114 -57 146 -216 62 -314 -132
-153 -381 -54 -367 145 8 102 67 171 166 192 47 10 86 4 139 -23z"/>
<path d="M2182 1279 c-12 -18 -10 -23 12 -44 34 -31 137 -79 206 -96 88 -22
221 -15 316 15 83 27 164 76 164 100 0 7 -8 20 -18 29 -17 15 -21 15 -53 -3
-111 -65 -192 -85 -308 -77 -92 6 -170 31 -232 72 -47 30 -70 32 -87 4z"/>
</g>
</svg>
